<svg xmlns="http://www.w3.org/2000/svg" width="60" height="60" viewBox="0 0 60 60"><defs><style>.a,.b{fill:#2c8dff;}.a{opacity:0.1;}.b{stroke:rgba(0,0,0,0);stroke-miterlimit:10;}</style></defs><g transform="translate(568.5 -2695.5)"><circle class="a" cx="30" cy="30" r="30" transform="translate(-568.5 2695.5)"/><path class="b" d="M0,21.624a5.779,5.779,0,0,1,1.7-4.077,5.706,5.706,0,0,1,4.045-1.665h.047a5.743,5.743,0,0,1,5.577,4.589,5.234,5.234,0,0,0,3.4-4.966V14.373a7.691,7.691,0,0,1,3.469-6.415h-6.75v1.23A3.285,3.285,0,0,1,8.2,12.469H3.282A3.281,3.281,0,0,1,0,9.188V4.265A3.281,3.281,0,0,1,3.282.985H8.2a3.281,3.281,0,0,1,3.28,3.28V5.5h8.036a3.283,3.283,0,0,1,.725-1.1L23.724.969A3.3,3.3,0,0,1,26.051,0a3.263,3.263,0,0,1,2.318.969L31.846,4.48a3.28,3.28,0,0,1,0,4.643L28.368,12.6a3.268,3.268,0,0,1-2.314.968h0a3.307,3.307,0,0,1-2.327-.968L20.66,9.463a5.235,5.235,0,0,0-3.465,4.992v1.132a7.7,7.7,0,0,1-5.89,7.465A5.743,5.743,0,0,1,0,21.624Zm4.02-1.758a2.461,2.461,0,0,0,1.706,4.218h.017a2.461,2.461,0,0,0,.049-4.921H5.742A2.448,2.448,0,0,0,4.02,19.866ZM22.576,6.775l3.478,3.479,3.478-3.479L26.054,3.282ZM3.282,9.188H8.2V4.265H3.282Z" transform="translate(-551.863 2714.111)"/></g></svg>