<svg xmlns="http://www.w3.org/2000/svg" width="60" height="60" viewBox="0 0 60 60"><defs><style>.a,.b{fill:#2c8dff;}.a{opacity:0.1;}</style></defs><g transform="translate(-0.5 -0.5)"><circle class="a" cx="30" cy="30" r="30" transform="translate(0.5 0.5)"/><g transform="translate(13.5 15.5)"><path class="b" d="M12.489,30a4.2,4.2,0,0,1-4.094-4.294H25.2A4.2,4.2,0,0,1,21.1,30ZM9.8,24.281a8.316,8.316,0,0,1-5.459-2.056,8.613,8.613,0,0,1-2.833-5.088,1.194,1.194,0,0,1-.122.005A1.438,1.438,0,0,1,0,15.8V10.03A1.43,1.43,0,0,1,1.393,8.569a8.6,8.6,0,0,1,2.46-6.062A8.28,8.28,0,0,1,9.8,0h14a8.5,8.5,0,0,1,8.411,8.569v.2a1.341,1.341,0,0,1,.392-.06A1.428,1.428,0,0,1,33.95,9.762a1.575,1.575,0,0,1,.05.41v5.647A1.445,1.445,0,0,1,32.607,17.3a1.345,1.345,0,0,1-.527-.106,8.588,8.588,0,0,1-2.838,5.054,8.31,8.31,0,0,1-5.438,2.035ZM4.91,8.569v7.144a4.965,4.965,0,0,0,4.911,5.006h14a4.964,4.964,0,0,0,4.911-5.006V8.569a4.964,4.964,0,0,0-4.911-5.006H9.8A4.957,4.957,0,0,0,4.91,8.569Zm14.7,4.739V9.335a2.1,2.1,0,1,1,4.2.018v3.831a2.164,2.164,0,0,1-2.039,2.262h-.061A2.154,2.154,0,0,1,19.608,13.307Zm-9.8-.124V9.335a2.109,2.109,0,1,1,4.214.018v3.831a2.109,2.109,0,1,1-4.214,0Z" transform="translate(0 0)"/></g></g></svg>