<?xml version="1.0" encoding="UTF-8"?>
<svg width="46px" height="46px" viewBox="0 0 46 46" version="1.1" xmlns="http://www.w3.org/2000/svg" xmlns:xlink="http://www.w3.org/1999/xlink">
    <title>Group 26</title>
    <g id="Page-1" stroke="none" stroke-width="1" fill="none" fill-rule="evenodd">
        <g id="大数据平台-2" transform="translate(-274.000000, -1131.000000)" fill-rule="nonzero">
            <g id="Group-30" transform="translate(274.000000, 998.000000)">
                <g id="Group-26" transform="translate(0.000000, 133.000000)">
                    <circle id="Oval" fill="#EBF3FF" cx="23" cy="23" r="23"></circle>
                    <g id="Group-6" transform="translate(14.000000, 16.000000)" fill="#1F5DEA">
                        <path d="M0,14.5 L0,10.5 C-3.38176876e-17,10.2238576 0.223857625,10 0.5,10 L2.5,10 C2.77614237,10 3,10.2238576 3,10.5 L3,14.5 C3,14.7761424 2.77614237,15 2.5,15 L0.5,15 C0.223857625,15 3.38176876e-17,14.7761424 0,14.5 Z" id="Path"></path>
                        <path d="M5,14.5 L5,7.5 C5,7.22385763 5.22385763,7 5.5,7 L7.5,7 C7.77614237,7 8,7.22385763 8,7.5 L8,14.5 C8,14.7761424 7.77614237,15 7.5,15 L5.5,15 C5.22385763,15 5,14.7761424 5,14.5 Z" id="Path-Copy"></path>
                        <path d="M10,14.5 L10,4.5 C10,4.22385763 10.2238576,4 10.5,4 L12.5,4 C12.7761424,4 13,4.22385763 13,4.5 L13,14.5 C13,14.7761424 12.7761424,15 12.5,15 L10.5,15 C10.2238576,15 10,14.7761424 10,14.5 Z" id="Path-Copy"></path>
                        <path d="M15,14.5 L15,0.5 C15,0.223857625 15.2238576,5.07265313e-17 15.5,0 L17.5,0 C17.7761424,-5.07265313e-17 18,0.223857625 18,0.5 L18,14.5 C18,14.7761424 17.7761424,15 17.5,15 L15.5,15 C15.2238576,15 15,14.7761424 15,14.5 Z" id="Path-Copy"></path>
                    </g>
                </g>
            </g>
        </g>
    </g>
</svg>