<?xml version="1.0" encoding="UTF-8"?>
<svg width="7px" height="9px" viewBox="0 0 7 9" version="1.1" xmlns="http://www.w3.org/2000/svg" xmlns:xlink="http://www.w3.org/1999/xlink">
    <title>Triangle备份</title>
    <g id="Page-1" stroke="none" stroke-width="1" fill="none" fill-rule="evenodd">
        <g id="大数据平台-2" transform="translate(-311.000000, -270.000000)" fill="#FF0808" fill-rule="nonzero">
            <g id="Group-11" transform="translate(264.000000, 188.000000)">
                <g id="编组" transform="translate(5.000000, 80.000000)">
                    <path d="M45.9719292,3.34836908 L48.5687089,10.7677398 C48.6599327,11.0283791 48.5225943,11.3136205 48.261955,11.4048442 C48.1279522,11.4517452 47.9803291,11.4394678 47.855915,11.371075 L45.7408648,10.2083923 C45.5908729,10.1259389 45.4091271,10.1259389 45.2591352,10.2083923 L43.144085,11.371075 C42.9020959,11.504101 42.5980862,11.4157689 42.4650603,11.1737798 C42.3966675,11.0493657 42.3843901,10.9017426 42.4312911,10.7677398 L45.0280708,3.34836908 C45.1192946,3.08772979 45.4045359,2.95039136 45.6651752,3.04161511 C45.8087699,3.09187324 45.9216711,3.20477443 45.9719292,3.34836908 Z" id="Triangle备份" transform="translate(45.500000, 7.000000) scale(1, -1) translate(-45.500000, -7.000000) "></path>
                </g>
            </g>
        </g>
    </g>
</svg>